<svg xmlns="http://www.w3.org/2000/svg" viewBox="0 0 1600 1000" role="img" aria-labelledby="t d">
<title id="t">Sound Club, Palma — audio distribution diagram</title>
<desc id="d">Generated schematic showing documented interior and exterior audio routing. Not as-built geometry.</desc>
<defs><style>
.bg{fill:#0b0f0d}.box{fill:#121815;stroke:#3c4940;stroke-width:2}.group{fill:#171f1a;stroke:#765f42;stroke-width:2}.txt{fill:#f4efe6;font-family:Arial,sans-serif}.muted{fill:#8e9a92;font-family:Arial,sans-serif}.mono{fill:#c9a06b;font-family:monospace;letter-spacing:2px}.line{stroke:#b78a52;stroke-width:3;fill:none}.thin{stroke:#59645c;stroke-width:2;fill:none}.sub{fill:#7d5634}.top{fill:#c5a47a}.ext{fill:#56706d}
</style></defs>
<rect class="bg" width="1600" height="1000"/>
<text x="70" y="82" class="txt" font-size="44" font-weight="700">SOUND CLUB, PALMA · AUDIO DISTRIBUTION</text>
<text x="70" y="122" class="mono" font-size="18">GENERATED DIAGRAM · NOT AS-BUILT · DOCUMENTED ROUTING / COUNTS</text>
<rect x="70" y="175" width="360" height="690" rx="22" class="box"/>
<text x="105" y="225" class="mono" font-size="18">SOURCES / PROCESSING</text>
<rect x="105" y="275" width="290" height="95" rx="14" class="group"/>
<text x="135" y="315" class="txt" font-size="23" font-weight="700">Pioneer V10</text><text x="135" y="345" class="muted" font-size="16">Interior / event source</text>
<rect x="105" y="415" width="290" height="120" rx="14" class="group"/>
<text x="135" y="458" class="txt" font-size="23" font-weight="700">Ecler MIMO88</text><text x="135" y="490" class="muted" font-size="16">IN1–2 interior · IN3–4 exterior</text><text x="135" y="516" class="muted" font-size="16">Zones · presets · DSP</text>
<rect x="105" y="585" width="290" height="115" rx="14" class="group"/>
<text x="135" y="625" class="txt" font-size="22" font-weight="700">Pulse 9</text><text x="135" y="655" class="muted" font-size="16">Interior / Exterior groups</text><text x="135" y="680" class="muted" font-size="16">Restaurant / Club presets</text>
<path d="M250 370v45M250 535v50" class="line"/>
<rect x="475" y="175" width="700" height="690" rx="22" class="box"/>
<text x="510" y="225" class="mono" font-size="18">INTERIOR POWER / LOUDSPEAKERS</text>
<rect x="520" y="275" width="280" height="115" rx="14" class="group"/>
<text x="550" y="318" class="txt" font-size="22" font-weight="700">2 × GTX 14K DSP</text><text x="550" y="348" class="muted" font-size="16">8 × 18-inch subs</text>
<rect x="850" y="275" width="280" height="115" rx="14" class="group"/>
<text x="880" y="318" class="txt" font-size="22" font-weight="700">2 × GTX 5K DSP</text><text x="880" y="348" class="muted" font-size="16">8 × 12-inch tops</text>
<path d="M800 332h50" class="thin"/>
<g><rect x="535" y="520" width="120" height="210" rx="14" class="group"/><text x="553" y="550" class="mono" font-size="14">TOWER 1</text><circle cx="595" cy="600" r="28" class="top"/><circle cx="595" cy="665" r="30" class="sub"/><circle cx="595" cy="715" r="30" class="sub"/><text x="559" y="780" class="muted" font-size="14">2 top / 2 sub</text></g><g><rect x="685" y="520" width="120" height="210" rx="14" class="group"/><text x="703" y="550" class="mono" font-size="14">TOWER 2</text><circle cx="745" cy="600" r="28" class="top"/><circle cx="745" cy="665" r="30" class="sub"/><circle cx="745" cy="715" r="30" class="sub"/><text x="709" y="780" class="muted" font-size="14">2 top / 2 sub</text></g><g><rect x="835" y="520" width="120" height="210" rx="14" class="group"/><text x="853" y="550" class="mono" font-size="14">TOWER 3</text><circle cx="895" cy="600" r="28" class="top"/><circle cx="895" cy="665" r="30" class="sub"/><circle cx="895" cy="715" r="30" class="sub"/><text x="859" y="780" class="muted" font-size="14">2 top / 2 sub</text></g><g><rect x="985" y="520" width="120" height="210" rx="14" class="group"/><text x="1003" y="550" class="mono" font-size="14">TOWER 4</text><circle cx="1045" cy="600" r="28" class="top"/><circle cx="1045" cy="665" r="30" class="sub"/><circle cx="1045" cy="715" r="30" class="sub"/><text x="1009" y="780" class="muted" font-size="14">2 top / 2 sub</text></g>
<path d="M660 390v100M990 390v100" class="line"/>
<rect x="1220" y="175" width="310" height="690" rx="22" class="box"/>
<text x="1255" y="225" class="mono" font-size="18">EXTERIOR MOBILE</text>
<rect x="1255" y="290" width="240" height="160" rx="14" class="group"/>
<text x="1285" y="330" class="txt" font-size="21" font-weight="700">DJ furniture</text>
<text x="1285" y="362" class="muted" font-size="16">GTX 14K DSP integrated</text>
<text x="1285" y="394" class="muted" font-size="16">2 × 8-inch tops</text>
<text x="1285" y="422" class="muted" font-size="16">2 × 15-inch subs</text>
<g><circle cx="1320" cy="560" r="34" class="ext"/><circle cx="1430" cy="560" r="34" class="ext"/><circle cx="1320" cy="660" r="46" class="sub"/><circle cx="1430" cy="660" r="46" class="sub"/></g>
<text x="1260" y="780" class="muted" font-size="15">Mobile / event deployment</text>
<path d="M430 475h45M1175 475h45" class="line"/>
<text x="70" y="940" class="muted" font-size="16">Counts and routing are project facts. Positions are diagrammatic, not measured coordinates.</text>
</svg>